# xmcd
#
# Track frame offsets: 
#        150
#        19024
#        30635
#        42549
#        53999
#        68153
#        85209
#        99834
#        116627
#        126130
#
# Disc length: 1848 seconds
#
# Revision: 0
# Processed by: cddbd v1.5.2PL0 Copyright (c) Steve Scherf et al.
# Submitted via: ExactAudioCopy v0.95a5
#
DISCID=7f07360a
DTITLE=Rick Trevino - OH VEN, EMANUEL
DYEAR=2009
DGENRE=Christmas
TTITLE0=Oh Ven! !Oh Ven, Emanuel!
TTITLE1=Christmas Time Is Here
TTITLE2=God Rest Ye Merry Gentlemen
TTITLE3=Away In a Manger
TTITLE4=The Little Drummer Boy
TTITLE5=Have Yourself a Merry Little Christmas
TTITLE6=Silent Night
TTITLE7=What Child Is This ?
TTITLE8=The Christmas Song
TTITLE9=Welcome to Our World
EXTD=
EXTT0=
EXTT1=
EXTT2=
EXTT3=
EXTT4=
EXTT5=
EXTT6=
EXTT7=
EXTT8=
EXTT9=
PLAYORDER=
